REM DIRINDEX 1\3,1\2\4,1\2\5,1\2\6
REM DIRNAME folder01,folder02,folder03,folder04,folder05,folder06
TITLE ""
FILE "082.mp3" MP3
  TRACK 01 AUDIO
    TITLE "4:cjc137_3363"
    INDEX 01 00:00:00
  TRACK 02 AUDIO
    TITLE "0:"
    INDEX 01 00:01:28
  TRACK 03 AUDIO
    TITLE "6:cjc137_3364"
    INDEX 01 00:01:48
  TRACK 04 AUDIO
    TITLE "0:"
    INDEX 01 00:02:53
  TRACK 05 AUDIO
    TITLE "5:cjc137_3365"
    INDEX 01 00:02:57
  TRACK 06 AUDIO
    TITLE "0:"
    INDEX 01 00:04:09
  TRACK 07 AUDIO
    TITLE "4:cjc137_3366"
    INDEX 01 00:05:30
  TRACK 08 AUDIO
    TITLE "0:"
    INDEX 01 00:06:51
  TRACK 09 AUDIO
    TITLE "6:cjc137_3367"
    INDEX 01 00:06:55
  TRACK 10 AUDIO
    TITLE "0:"
    INDEX 01 00:08:03
  TRACK 11 AUDIO
    TITLE "5:cjc137_3368"
    INDEX 01 00:08:07
  TRACK 12 AUDIO
    TITLE "0:"
    INDEX 01 00:09:28
  TRACK 13 AUDIO
    TITLE "4:cjc137_3369"
    INDEX 01 00:10:33
  TRACK 14 AUDIO
    TITLE "0:"
    INDEX 01 00:11:42
  TRACK 15 AUDIO
    TITLE "6:cjc137_3370"
    INDEX 01 00:11:46
  TRACK 16 AUDIO
    TITLE "0:"
    INDEX 01 00:12:46
  TRACK 17 AUDIO
    TITLE "5:cjc137_3371"
    INDEX 01 00:12:50
  TRACK 18 AUDIO
    TITLE "0:"
    INDEX 01 00:13:59
  TRACK 19 AUDIO
    TITLE "4:cjc137_3372"
    INDEX 01 00:14:66
  TRACK 20 AUDIO
    TITLE "0:"
    INDEX 01 00:16:18
  TRACK 21 AUDIO
    TITLE "6:cjc137_3373"
    INDEX 01 00:16:26
  TRACK 22 AUDIO
    TITLE "0:"
    INDEX 01 00:17:47
  TRACK 23 AUDIO
    TITLE "5:cjc137_3374"
    INDEX 01 00:17:51
  TRACK 24 AUDIO
    TITLE "0:"
    INDEX 01 00:19:03
  TRACK 25 AUDIO
    TITLE "4:cjc137_3375"
    INDEX 01 00:20:16
  TRACK 26 AUDIO
    TITLE "0:"
    INDEX 01 00:21:35
  TRACK 27 AUDIO
    TITLE "6:cjc137_3376"
    INDEX 01 00:21:41
  TRACK 28 AUDIO
    TITLE "0:"
    INDEX 01 00:23:03
  TRACK 29 AUDIO
    TITLE "5:cjc137_3377"
    INDEX 01 00:23:06
  TRACK 30 AUDIO
    TITLE "0:"
    INDEX 01 00:24:27
  TRACK 31 AUDIO
    TITLE "4:cjc137_3378"
    INDEX 01 00:25:31
  TRACK 32 AUDIO
    TITLE "0:"
    INDEX 01 00:26:56
  TRACK 33 AUDIO
    TITLE "6:cjc137_3379"
    INDEX 01 00:26:62
  TRACK 34 AUDIO
    TITLE "0:"
    INDEX 01 00:28:17
  TRACK 35 AUDIO
    TITLE "5:cjc137_3380"
    INDEX 01 00:28:19
  TRACK 36 AUDIO
    TITLE "0:"
    INDEX 01 00:29:46
  TRACK 37 AUDIO
    TITLE "4:cjc137_3381"
    INDEX 01 00:30:54
  TRACK 38 AUDIO
    TITLE "0:"
    INDEX 01 00:31:63
  TRACK 39 AUDIO
    TITLE "6:cjc137_3382"
    INDEX 01 00:31:67
  TRACK 40 AUDIO
    TITLE "0:"
    INDEX 01 00:33:09
  TRACK 41 AUDIO
    TITLE "5:cjc137_3383"
    INDEX 01 00:33:17
  TRACK 42 AUDIO
    TITLE "0:"
    INDEX 01 00:34:24
  TRACK 43 AUDIO
    TITLE "4:cjc137_3384"
    INDEX 01 00:35:35
  TRACK 44 AUDIO
    TITLE "0:"
    INDEX 01 00:36:31
  TRACK 45 AUDIO
    TITLE "6:cjc137_3385"
    INDEX 01 00:36:40
  TRACK 46 AUDIO
    TITLE "0:"
    INDEX 01 00:37:22
  TRACK 47 AUDIO
    TITLE "5:cjc137_3386"
    INDEX 01 00:37:32
  TRACK 48 AUDIO
    TITLE "0:"
    INDEX 01 00:38:26
  TRACK 49 AUDIO
    TITLE "4:cjc137_3387"
    INDEX 01 00:39:41
  TRACK 50 AUDIO
    TITLE "0:"
    INDEX 01 00:40:48
  TRACK 51 AUDIO
    TITLE "6:cjc137_3388"
    INDEX 01 00:40:56
  TRACK 52 AUDIO
    TITLE "0:"
    INDEX 01 00:41:65
  TRACK 53 AUDIO
    TITLE "5:cjc137_3389"
    INDEX 01 00:41:73
  TRACK 54 AUDIO
    TITLE "0:"
    INDEX 01 00:43:05
  TRACK 55 AUDIO
    TITLE "4:cjc137_3390"
    INDEX 01 00:44:18
  TRACK 56 AUDIO
    TITLE "0:"
    INDEX 01 00:45:20
  TRACK 57 AUDIO
    TITLE "6:cjc137_3391"
    INDEX 01 00:45:28
  TRACK 58 AUDIO
    TITLE "0:"
    INDEX 01 00:46:41
  TRACK 59 AUDIO
    TITLE "5:cjc137_3392"
    INDEX 01 00:46:49
  TRACK 60 AUDIO
    TITLE "0:"
    INDEX 01 00:47:52
  TRACK 61 AUDIO
    TITLE "4:cjc137_3393"
    INDEX 01 00:48:59
  TRACK 62 AUDIO
    TITLE "0:"
    INDEX 01 00:50:03
  TRACK 63 AUDIO
    TITLE "6:cjc137_3394"
    INDEX 01 00:50:07
  TRACK 64 AUDIO
    TITLE "0:"
    INDEX 01 00:51:03
  TRACK 65 AUDIO
    TITLE "5:cjc137_3395"
    INDEX 01 00:51:11
  TRACK 66 AUDIO
    TITLE "0:"
    INDEX 01 00:52:28
  TRACK 67 AUDIO
    TITLE "4:cjc137_3396"
    INDEX 01 00:53:37
  TRACK 68 AUDIO
    TITLE "0:"
    INDEX 01 00:54:54
  TRACK 69 AUDIO
    TITLE "6:cjc137_3397"
    INDEX 01 00:54:58
  TRACK 70 AUDIO
    TITLE "0:"
    INDEX 01 00:55:67
  TRACK 71 AUDIO
    TITLE "5:cjc137_3398"
    INDEX 01 00:56:00
  TRACK 72 AUDIO
    TITLE "0:"
    INDEX 01 00:57:17
  TRACK 73 AUDIO
    TITLE "4:cjc137_3399"
    INDEX 01 00:58:26
  TRACK 74 AUDIO
    TITLE "0:"
    INDEX 01 00:59:57
  TRACK 75 AUDIO
    TITLE "6:cjc137_3400"
    INDEX 01 00:59:61
  TRACK 76 AUDIO
    TITLE "0:"
    INDEX 01 01:00:74
  TRACK 77 AUDIO
    TITLE "5:cjc137_3401"
    INDEX 01 01:01:07
  TRACK 78 AUDIO
    TITLE "0:"
    INDEX 01 01:02:38
  TRACK 79 AUDIO
    TITLE "4:cjc137_3402"
    INDEX 01 01:03:43
  TRACK 80 AUDIO
    TITLE "0:"
    INDEX 01 01:04:58
  TRACK 81 AUDIO
    TITLE "6:cjc137_3403"
    INDEX 01 01:04:60
  TRACK 82 AUDIO
    TITLE "0:"
    INDEX 01 01:05:50
  TRACK 83 AUDIO
    TITLE "5:cjc137_3404"
    INDEX 01 01:05:54
  TRACK 84 AUDIO
    TITLE "0:"
    INDEX 01 01:06:69
